<svg width="65" height="58" viewBox="0 0 65 58" fill="none" xmlns="http://www.w3.org/2000/svg">
<path d="M59.5969 34.1338L64.9315 10.5713C65.3167 8.87004 64.0285 7.25 62.2906 7.25H17.9662L16.9318 2.17387C16.6741 0.908629 15.565 0 14.2784 0H2.70833C1.21254 0 0 1.21721 0 2.71875V4.53125C0 6.03279 1.21254 7.25 2.70833 7.25H10.5944L18.5217 46.1547C16.6252 47.2496 15.3472 49.3025 15.3472 51.6562C15.3472 55.1598 18.1765 58 21.6667 58C25.1568 58 27.9861 55.1598 27.9861 51.6562C27.9861 49.8807 27.2586 48.2765 26.0876 47.125H49.7457C48.5748 48.2765 47.8472 49.8807 47.8472 51.6562C47.8472 55.1598 50.6765 58 54.1667 58C57.6568 58 60.4861 55.1598 60.4861 51.6562C60.4861 49.1446 59.0317 46.9741 56.9225 45.9463L57.5451 43.1963C57.9302 41.495 56.6421 39.875 54.9041 39.875H24.6139L23.8753 36.25H56.9559C58.2205 36.25 59.3167 35.3716 59.5969 34.1338Z" fill="#FFC909"/>
</svg>
